<svg width="29" height="29" viewBox="0 0 29 29" fill="none" xmlns="http://www.w3.org/2000/svg">
<path d="M22.5807 18.3281L19.5981 17.9875C19.2474 17.9464 18.8919 17.9852 18.5584 18.1011C18.2248 18.217 17.9219 18.407 17.6724 18.6569L15.5118 20.8175C12.1783 19.1221 9.46884 16.4127 7.77349 13.0792L9.94584 10.9069C10.4508 10.4019 10.6974 9.69739 10.6152 8.9811L10.2746 6.02201C10.2081 5.44919 9.93315 4.92085 9.50226 4.53759C9.07136 4.15433 8.51457 3.94292 7.93789 3.94361H5.90645C4.57955 3.94361 3.47577 5.04739 3.55796 6.37429C4.18031 16.4023 12.2004 24.4107 22.2167 25.033C23.5436 25.1152 24.6474 24.0114 24.6474 22.6845V20.6531C24.6591 19.4671 23.7667 18.469 22.5807 18.3281Z" fill="#4D6BB9"/>
</svg>
