<svg width="29" height="29" viewBox="0 0 29 29" fill="none" xmlns="http://www.w3.org/2000/svg">
<path d="M14.0909 3.16663C9.54659 3.16663 5.87122 6.842 5.87122 11.3863C5.87122 16.2829 11.0614 23.0348 13.1985 25.6064C13.6682 26.17 14.5254 26.17 14.9951 25.6064C17.1205 23.0348 22.3106 16.2829 22.3106 11.3863C22.3106 6.842 18.6352 3.16663 14.0909 3.16663ZM14.0909 14.3219C13.3123 14.3219 12.5657 14.0126 12.0151 13.4621C11.4646 12.9116 11.1553 12.1649 11.1553 11.3863C11.1553 10.6078 11.4646 9.86107 12.0151 9.31054C12.5657 8.76 13.3123 8.45072 14.0909 8.45072C14.8695 8.45072 15.6162 8.76 16.1667 9.31054C16.7172 9.86107 17.0265 10.6078 17.0265 11.3863C17.0265 12.1649 16.7172 12.9116 16.1667 13.4621C15.6162 14.0126 14.8695 14.3219 14.0909 14.3219Z" fill="#4D6BB9"/>
</svg>
