<?xml version="1.0" encoding="UTF-8"?>
<!DOCTYPE svg PUBLIC "-//W3C//DTD SVG 1.1//EN" "http://www.w3.org/Graphics/SVG/1.1/DTD/svg11.dtd">
<!-- Creator: CorelDRAW 2019 (64-Bit) -->
<svg xmlns="http://www.w3.org/2000/svg" xml:space="preserve" width="6.9732mm" height="6.9732mm" version="1.1" style="shape-rendering:geometricPrecision; text-rendering:geometricPrecision; image-rendering:optimizeQuality; fill-rule:evenodd; clip-rule:evenodd"
viewBox="0 0 87.72 87.72"
 xmlns:xlink="http://www.w3.org/1999/xlink">
 <defs>
  <style type="text/css">
   <![CDATA[
    .fil0 {fill:white;fill-rule:nonzero}
   ]]>
  </style>
 </defs>
 <g id="Layer_x0020_1">
  <metadata id="CorelCorpID_0Corel-Layer"/>
  <path class="fil0" d="M1.26 64.17l0 -40.63c0,-12.26 10.03,-22.29 22.29,-22.29l40.63 0c12.26,0 22.29,10.03 22.29,22.29l0 40.63c-0,12.26 -10.03,22.29 -22.29,22.29l-13.66 0 -13.32 0 -13.66 0c-12.26,0 -22.29,-10.03 -22.29,-22.29zm54.38 -16.82l1.4 -9.16 -8.78 0 0 -5.94c0,-2.51 1.23,-4.95 5.16,-4.95l3.99 0 0 -7.8c0,0 -3.63,-0.62 -7.09,-0.62 -7.24,0 -11.97,4.39 -11.97,12.33l0 6.98 -8.04 0 0 9.16 8.04 0 0 21.49 9.9 0 0 -21.49 7.38 0z"/>
 </g>
</svg>
