<?xml version="1.0" encoding="UTF-8"?>
<!DOCTYPE svg PUBLIC "-//W3C//DTD SVG 1.1//EN" "http://www.w3.org/Graphics/SVG/1.1/DTD/svg11.dtd">
<!-- Creator: CorelDRAW 2019 (64-Bit) -->
<svg xmlns="http://www.w3.org/2000/svg" xml:space="preserve" width="6.9732mm" height="6.9732mm" version="1.1" style="shape-rendering:geometricPrecision; text-rendering:geometricPrecision; image-rendering:optimizeQuality; fill-rule:evenodd; clip-rule:evenodd"
viewBox="0 0 68.5 68.5"
 xmlns:xlink="http://www.w3.org/1999/xlink">
 <defs>
  <style type="text/css">
   <![CDATA[
    .fil0 {fill:white}
   ]]>
  </style>
 </defs>
 <g id="Layer_x0020_1">
  <metadata id="CorelCorpID_0Corel-Layer"/>
  <path class="fil0" d="M18.44 0.98l31.63 0c9.6,0 17.46,7.85 17.46,17.46l0 31.63c0,9.6 -7.85,17.46 -17.46,17.46l-31.63 0c-9.6,0 -17.46,-7.85 -17.46,-17.46l0 -31.63c0,-9.6 7.85,-17.46 17.46,-17.46zm26.14 20.73c-1.26,0 -2.29,1.02 -2.29,2.29 0,1.26 1.02,2.29 2.29,2.29 1.26,0 2.29,-1.02 2.29,-2.29 0,-1.26 -1.03,-2.29 -2.29,-2.29zm-10.17 18.69c-3.39,0 -6.15,-2.76 -6.15,-6.15 0,-3.4 2.76,-6.16 6.15,-6.16 3.39,0 6.15,2.76 6.15,6.16 0,3.39 -2.76,6.15 -6.15,6.15zm0 -15.76c-5.3,0 -9.61,4.31 -9.61,9.61 0,5.3 4.31,9.61 9.61,9.61 5.3,0 9.61,-4.31 9.61,-9.61 0,-5.3 -4.31,-9.61 -9.61,-9.61zm-7.95 -6.23c-4.44,0 -8.05,3.61 -8.05,8.05l0 15.58c0,4.44 3.61,8.05 8.05,8.05l15.58 0c4.44,0 8.05,-3.61 8.05,-8.05l0 -15.58c0,-4.44 -3.61,-8.05 -8.05,-8.05l-15.58 0zm15.58 35.34l-15.58 0c-6.46,0 -11.72,-5.26 -11.72,-11.72l0 -15.58c0,-6.46 5.26,-11.72 11.72,-11.72l15.58 0c6.46,0 11.72,5.26 11.72,11.72l0 15.58c0,6.46 -5.26,11.72 -11.72,11.72z"/>
 </g>
</svg>
