<?xml version="1.0" encoding="UTF-8"?>
<!DOCTYPE svg PUBLIC "-//W3C//DTD SVG 1.1//EN" "http://www.w3.org/Graphics/SVG/1.1/DTD/svg11.dtd">
<!-- Creator: CorelDRAW 2019 (64-Bit) -->
<svg xmlns="http://www.w3.org/2000/svg" xml:space="preserve" width="6.9733mm" height="6.9736mm" version="1.1" style="shape-rendering:geometricPrecision; text-rendering:geometricPrecision; image-rendering:optimizeQuality; fill-rule:evenodd; clip-rule:evenodd"
viewBox="0 0 55.69 55.69"
 xmlns:xlink="http://www.w3.org/1999/xlink">
 <defs>
  <style type="text/css">
   <![CDATA[
    .fil0 {fill:white}
   ]]>
  </style>
 </defs>
 <g id="Layer_x0020_1">
  <metadata id="CorelCorpID_0Corel-Layer"/>
  <path class="fil0" d="M14.95 0.8l25.79 0c7.78,0 14.15,6.37 14.15,14.15l0 25.79c0,7.78 -6.37,14.15 -14.15,14.15l-25.79 0c-7.78,0 -14.15,-6.37 -14.15,-14.15l0 -25.79c0,-7.78 6.37,-14.15 14.15,-14.15zm4.17 13.65c1.67,0 3.03,1.36 3.03,3.03 0,1.67 -1.36,3.03 -3.03,3.03 -1.68,0 -3.04,-1.36 -3.04,-3.03 0,-1.67 1.36,-3.03 3.04,-3.03zm5.9 8.36l5.01 0 0 2.3 0.07 0c0.7,-1.32 2.4,-2.72 4.95,-2.72 5.3,0 6.27,3.48 6.27,8.01l0 9.23 -5.23 0 0 -8.18c0,-1.95 -0.04,-4.46 -2.72,-4.46 -2.72,0 -3.14,2.13 -3.14,4.32l0 8.32 -5.23 0 0 -16.83zm-8.52 0l5.24 0 0 16.83 -5.24 0 0 -16.83z"/>
 </g>
</svg>
