<svg width="29" height="29" viewBox="0 0 29 29" fill="none" xmlns="http://www.w3.org/2000/svg">
<path d="M23.4848 4.69702H4.69696C3.4053 4.69702 2.34848 5.75384 2.34848 7.04551V21.1364C2.34848 22.4281 3.4053 23.4849 4.69696 23.4849H23.4848C24.7765 23.4849 25.8333 22.4281 25.8333 21.1364V7.04551C25.8333 5.75384 24.7765 4.69702 23.4848 4.69702ZM23.0151 9.68755L15.3356 14.4902C14.5723 14.9716 13.6095 14.9716 12.8462 14.4902L5.16666 9.68755C5.04892 9.62145 4.94581 9.53215 4.86358 9.42505C4.78134 9.31795 4.7217 9.19528 4.68825 9.06446C4.6548 8.93365 4.64824 8.7974 4.66897 8.66397C4.6897 8.53055 4.73728 8.40271 4.80885 8.28821C4.88041 8.1737 4.97447 8.07491 5.08532 7.99781C5.19617 7.92071 5.32151 7.8669 5.45376 7.83964C5.58601 7.81239 5.72241 7.81225 5.85471 7.83923C5.98702 7.86622 6.11247 7.91977 6.22348 7.99664L14.0909 12.9167L21.9583 7.99664C22.0693 7.91977 22.1948 7.86622 22.3271 7.83923C22.4594 7.81225 22.5958 7.81239 22.7281 7.83964C22.8603 7.8669 22.9856 7.92071 23.0965 7.99781C23.2073 8.07491 23.3014 8.1737 23.373 8.28821C23.4445 8.40271 23.4921 8.53055 23.5128 8.66397C23.5336 8.7974 23.527 8.93365 23.4936 9.06446C23.4601 9.19528 23.4005 9.31795 23.3182 9.42505C23.236 9.53215 23.1329 9.62145 23.0151 9.68755Z" fill="#4D6BB9"/>
</svg>
