<?xml version="1.0" encoding="UTF-8"?>
<!DOCTYPE svg PUBLIC "-//W3C//DTD SVG 1.1//EN" "http://www.w3.org/Graphics/SVG/1.1/DTD/svg11.dtd">
<!-- Creator: CorelDRAW 2019 (64-Bit) -->
<svg xmlns="http://www.w3.org/2000/svg" xml:space="preserve" width="6.9733mm" height="6.9734mm" version="1.1" style="shape-rendering:geometricPrecision; text-rendering:geometricPrecision; image-rendering:optimizeQuality; fill-rule:evenodd; clip-rule:evenodd"
viewBox="0 0 45.37 45.38"
 xmlns:xlink="http://www.w3.org/1999/xlink">
 <defs>
  <style type="text/css">
   <![CDATA[
    .fil0 {fill:white}
   ]]>
  </style>
 </defs>
 <g id="Layer_x0020_1">
  <metadata id="CorelCorpID_0Corel-Layer"/>
  <path class="fil0" d="M12.18 0.65l21.02 0c6.34,0 11.53,5.19 11.53,11.53l0 21.02c0,6.34 -5.19,11.53 -11.53,11.53l-21.02 0c-6.34,0 -11.53,-5.19 -11.53,-11.53l0 -21.02c0,-6.34 5.19,-11.53 11.53,-11.53zm5.84 30.09l0.43 0.26c1.59,0.95 3.4,1.45 5.24,1.45 5.66,0 10.27,-4.61 10.27,-10.27 0,-5.66 -4.61,-10.27 -10.27,-10.27 -5.66,0 -10.26,4.61 -10.26,10.27 0,1.87 0.52,3.71 1.5,5.32l0.27 0.44 -1.02 3.83 3.85 -1.03zm10.38 -6.79c-0.52,-0.31 -1.2,-0.66 -1.81,-0.41 -0.47,0.19 -0.77,0.93 -1.08,1.31 -0.16,0.19 -0.34,0.22 -0.58,0.13 -1.77,-0.71 -3.12,-1.89 -4.1,-3.51 -0.17,-0.25 -0.14,-0.45 0.06,-0.69 0.29,-0.35 0.66,-0.74 0.74,-1.21 0.08,-0.47 -0.14,-1.01 -0.33,-1.43 -0.25,-0.53 -0.52,-1.29 -1.05,-1.59 -0.49,-0.28 -1.14,-0.12 -1.57,0.23 -0.75,0.61 -1.12,1.57 -1.1,2.53 0,0.27 0.03,0.54 0.1,0.8 0.15,0.63 0.44,1.22 0.77,1.77 0.25,0.42 0.51,0.83 0.8,1.22 0.94,1.28 2.12,2.4 3.48,3.23 0.68,0.42 1.41,0.78 2.17,1.03 0.85,0.28 1.61,0.57 2.53,0.4 0.96,-0.18 1.91,-0.78 2.29,-1.7 0.11,-0.28 0.17,-0.58 0.11,-0.87 -0.13,-0.6 -0.94,-0.96 -1.43,-1.24zm-17.61 11.21l1.84 -6.86c-1.04,-1.88 -1.59,-3.98 -1.59,-6.11 0,-6.98 5.68,-12.66 12.66,-12.66 6.98,0 12.66,5.68 12.66,12.66 0,6.98 -5.68,12.66 -12.66,12.66 -2.1,0 -4.17,-0.53 -6.02,-1.53l-6.89 1.85z"/>
 </g>
</svg>
